#!OML:ASF H:\Male1\Project 1\Capture day 1\Session 1\Male1.ASF
:FULLY-SPECIFIED
:DEGREES
511
root -6.78619 15.1315 11.4194 -0.180219 139.646 -361.155
lowerback 11.2342 2.98588 4.69534
upperback 5.05106 4.79156 -0.217464
thorax -0.605265 2.62301 -3.39505
lowerneck -2.94016 11.9611 14.5183
upperneck -3.45168 15.7512 -16.1273
head 1.94056 7.86308 -6.46489
rclavicle -6.91771e-014 1.03368e-014
rhumerus -40.1716 -8.38807 -76.9241
rradius 35.2409
rwrist -21.8339
rhand -19.1313 -3.93409
rfingers 7.12502
rthumb 7.17843 -33.7923
lclavicle -6.91771e-014 1.03368e-014
lhumerus -36.0986 22.6497 68.3843
lradius 34.8409
lwrist -6.45231
lhand -14.2893 7.31991
lfingers 7.12502
lthumb 11.8501 36.9646
rfemur 2.55404 15.4036 30.7891
rtibia 19.9937
rfoot -46.8054 -36.3684
rtoes -0.73445
lfemur -28.1208 -5.8822 -21.2665
ltibia 48.2091
lfoot -20.5859 14.6431
ltoes -14.7345
512
root -6.7146 15.1297 11.3564 -0.17148 140.111 -361.044
lowerback 11.3273 2.939 4.71007
upperback 5.12148 4.74528 -0.198633
thorax -0.587134 2.60633 -3.38268
lowerneck -2.79633 11.9055 14.5092
upperneck -3.76596 15.6784 -16.2729
head 1.8281 7.84184 -6.53384
rclavicle 2.38542e-015 -7.95139e-015
rhumerus -39.7126 -7.76924 -77.1804
rradius 35.2186
rwrist -22.4832
rhand -19.4299 -3.71329
rfingers 7.12502
rthumb 6.8902 -33.5812
lclavicle 2.38542e-015 -7.95139e-015
lhumerus -35.9583 22.811 68.0627
lradius 34.7162
lwrist -6.0222
lhand -16.1349 8.58105
lfingers 7.12502
lthumb 10.07 38.3201
rfemur 3.56861 15.1319 31.1039
rtibia 18.9455
rfoot -46.8592 -36.7619
rtoes -0.176716
lfemur -28.7064 -5.89087 -21.2369
ltibia 47.421
lfoot -20.2082 15.1139
ltoes -14.5189
513
root -6.63957 15.1161 11.2912 -0.184679 140.605 -360.919
lowerback 11.413 2.96762 4.74825
upperback 5.19753 4.80089 -0.23993
thorax -0.542132 2.643 -3.45495
lowerneck -2.90266 11.7911 14.6457
upperneck -3.83101 15.5041 -16.3104
head 1.81436 7.75202 -6.57816
rclavicle -1.98785e-014 -1.59028e-015
rhumerus -39.5084 -7.81852 -77.3566
rradius 35.39
rwrist -22.6056
rhand -19.7776 -3.47386
rfingers 7.12502
rthumb 6.55448 -33.3524
lclavicle -1.98785e-014 -1.59028e-015
lhumerus -35.6486 22.2846 68.0746
lradius 34.7226
lwrist -4.47792
lhand -17.6646 8.83936
lfingers 7.12502
lthumb 8.59402 38.6445
rfemur 4.70445 14.8741 31.4972
rtibia 17.7442
rfoot -46.539 -37.5298
rtoes 0.0448012
lfemur -29.1857 -5.90247 -21.2344
ltibia 46.5557
lfoot -19.7066 16.2749
ltoes -16.1175
514
root -6.56466 15.1069 11.2153 -0.108592 141.005 -360.617
lowerback 11.4226 2.97288 4.88613
upperback 5.28003 4.83242 -0.214898
thorax -0.448524 2.66975 -3.50543
lowerneck -2.79628 11.6809 14.7246
upperneck -4.0569 15.3518 -16.3841
head 1.72151 7.68522 -6.64133
rclavicle -1.21259e-014 -1.23246e-014
rhumerus -39.3084 -7.71133 -77.5752
rradius 35.5563
rwrist -22.5772
rhand -20.1317 -3.23212
rfingers 7.12502
rthumb 6.21264 -33.121
lclavicle -1.21259e-014 -1.23246e-014
lhumerus -35.5346 21.9156 68.0383
lradius 34.9356
lwrist -3.38681
lhand -15.278 7.83675
lfingers 7.12502
lthumb 10.8966 37.534
rfemur 5.88447 14.5118 31.9672
rtibia 16.5547
rfoot -46.3487 -37.8836
rtoes -0.00184304
lfemur -29.483 -5.71629 -21.1177
ltibia 45.5473
lfoot -19.2565 17.32
ltoes -17.368
515
root -6.48502 15.1054 11.1376 0.0536404 141.362 -360.2
lowerback 11.3902 2.95655 4.94774
upperback 5.35726 4.82516 -0.124269
thorax -0.353967 2.67433 -3.43888
lowerneck -2.69161 11.6381 14.6306
upperneck -4.28176 15.2908 -16.3086
head 1.61556 7.66444 -6.62519
rclavicle 6.4605e-014 8.34896e-015
rhumerus -38.9902 -7.52325 -77.7313
rradius 35.7264
rwrist -22.5065
rhand -20.4102 -2.99293
rfingers 7.12502
rthumb 5.9438 -32.8896
lclavicle 6.4605e-014 8.34896e-015
lhumerus -35.607 21.9275 67.7411
lradius 35.138
lwrist -3.31866
lhand -15.0978 8.14208
lfingers 7.12502
lthumb 11.0704 37.8301
rfemur 7.0726 14.2384 32.5527
rtibia 15.3113
rfoot -46.3137 -38.3215
rtoes -0.578317
lfemur -29.6275 -5.44881 -20.8345
ltibia 44.4847
lfoot -19.5917 17.6997
ltoes -13.791
516
root -6.40008 15.1038 11.0486 0.144142 141.695 -360.091
lowerback 11.114 2.94649 4.77929
upperback 5.40195 4.7798 -0.128281
thorax -0.176117 2.65449 -3.32263
lowerneck -2.61652 11.6371 14.5304
upperneck -4.38788 15.2862 -16.1312
head 1.54739 7.66576 -6.56642
rclavicle 3.43897e-014 -1.23246e-014
rhumerus -38.9227 -7.75994 -77.8237
rradius 36.291
rwrist -22.1628
rhand -20.4364 -2.96612
rfingers 7.12502
rthumb 5.91853 -32.8635
lclavicle 3.43897e-014 -1.23246e-014
lhumerus -35.7812 22.0599 67.3192
lradius 35.2224
lwrist -3.57699
lhand -18.0682 9.67255
lfingers 7.12502
lthumb 8.20449 39.4932
rfemur 8.22786 14.0361 32.8374
rtibia 13.9495
rfoot -46.1811 -38.6851
rtoes -0.398383
lfemur -29.6763 -5.30746 -20.8036
ltibia 43.3324
lfoot -20.1698 18.2726
ltoes -9.60414
517
root -6.31295 15.0956 10.9503 0.0663378 142.052 -360.233
lowerback 10.8108 2.92325 4.45511
upperback 5.43342 4.69892 -0.196418
thorax -0.00765445 2.61275 -3.18214
lowerneck -2.50555 11.6573 14.377
upperneck -4.47162 15.3151 -15.8939
head 1.47524 7.68394 -6.48054
rclavicle -1.09133e-013 3.18055e-014
rhumerus -38.567 -6.98365 -78.3624
rradius 36.4304
rwrist -22.9082
rhand -20.7023 -2.71481
rfingers 7.12502
rthumb 5.66181 -32.6192
lclavicle -1.09133e-013 3.18055e-014
lhumerus -36.0179 22.2951 66.8708
lradius 35.2337
lwrist -3.75189
lhand -18.035 9.42311
lfingers 7.12502
lthumb 8.23654 39.2426
rfemur 9.42582 13.5417 32.8085
rtibia 12.5352
rfoot -45.6143 -38.8524
rtoes -0.150211
lfemur -29.5695 -5.25266 -21.0335
ltibia 42.106
lfoot -19.9755 19.1605
ltoes -7.10949
